# xmcd
#
# Track frame offsets:
#	150
#	27900
#	52200
#	82125
#
# Disc length: 1520 seconds
#
# Revision: 0
# Processed by: cddbd v1.5.2PL0 Copyright (c) Steve Scherf et al.
# Submitted via: audiograbber 1.83.01
#
DISCID=3205ee04
DTITLE=Simple Minds - Kick it in
DYEAR=1989
DGENRE=Rock
TTITLE0=Kick it in (LP version)
TTITLE1=Waterfront ('89 remix)
TTITLE2=Big sleep (live)
TTITLE3=Kick it in (Unauthorised mix)
EXTD=
EXTT0=
EXTT1=
EXTT2=
EXTT3=
PLAYORDER=
